<svg width="23" height="23" viewBox="0 0 23 23" fill="none" xmlns="http://www.w3.org/2000/svg">
<path fill-rule="evenodd" clip-rule="evenodd" d="M20.4661 2.5544C20.1321 0.968398 18.7201 -0.0766023 17.1131 0.00439772C15.5821 0.0813977 13.1981 0.259398 9.84758 0.666398C6.49758 1.0729 4.14008 1.4709 2.63608 1.7619C1.05558 2.0684 -0.060923 3.4229 0.00257699 5.0429C0.056577 6.4189 0.200077 8.4864 0.552577 11.3284C0.704577 12.5524 0.859577 13.6279 1.00858 14.5634C1.03658 16.5479 1.12558 18.0569 1.21858 19.1389C1.36908 20.8824 2.74808 22.1769 4.46608 22.2924C5.99408 22.3949 8.37958 22.4999 11.7496 22.4999C15.1196 22.4999 17.5056 22.3949 19.0336 22.2924C20.7516 22.1769 22.1306 20.8824 22.2806 19.1389C22.3936 17.8299 22.5001 15.8949 22.5001 13.2499C22.5001 10.6044 22.3936 8.6699 22.2811 7.3604C22.2419 6.87362 22.0989 6.40089 21.8615 5.9741C21.6241 5.54732 21.298 5.17641 20.9051 4.8864C20.7745 4.10618 20.6282 3.32868 20.4661 2.5544ZM11.7501 5.9994C8.42108 5.9994 6.08008 6.1029 4.60008 6.2024C3.83308 6.2544 3.27408 6.8054 3.21158 7.5324C3.10358 8.7804 2.99958 10.6574 2.99958 13.2499C2.99958 15.8414 3.10358 17.7189 3.21158 18.9674C3.27408 19.6944 3.83308 20.2454 4.60008 20.2969C6.08008 20.3964 8.42108 20.4999 11.7501 20.4999C15.0786 20.4999 17.4196 20.3964 18.8996 20.2969C19.6666 20.2454 20.2256 19.6944 20.2881 18.9669C20.3961 17.7189 20.5001 15.8419 20.5001 13.2499C20.5001 10.6579 20.3961 8.7804 20.2881 7.5324C20.2256 6.8054 19.6666 6.2544 18.8996 6.2024C17.4196 6.1029 15.0791 5.9994 11.7501 5.9994ZM4.92458 7.8814C4.65936 7.8814 4.40501 7.98676 4.21747 8.17429C4.02993 8.36183 3.92458 8.61618 3.92458 8.8814C3.92458 9.14661 4.02993 9.40097 4.21747 9.5885C4.40501 9.77604 4.65936 9.8814 4.92458 9.8814H8.82458C9.08979 9.8814 9.34415 9.77604 9.53168 9.5885C9.71922 9.40097 9.82458 9.14661 9.82458 8.8814C9.82458 8.61618 9.71922 8.36183 9.53168 8.17429C9.34415 7.98676 9.08979 7.8814 8.82458 7.8814H4.92458ZM3.92458 17.6169C3.92458 17.3517 4.02993 17.0973 4.21747 16.9098C4.40501 16.7223 4.65936 16.6169 4.92458 16.6169H18.5746C18.8398 16.6169 19.0941 16.7223 19.2817 16.9098C19.4692 17.0973 19.5746 17.3517 19.5746 17.6169C19.5746 17.8821 19.4692 18.1365 19.2817 18.324C19.0941 18.5115 18.8398 18.6169 18.5746 18.6169H4.92458C4.65936 18.6169 4.40501 18.5115 4.21747 18.324C4.02993 18.1365 3.92458 17.8821 3.92458 17.6169ZM4.92458 10.7934C4.65936 10.7934 4.40501 10.8988 4.21747 11.0863C4.02993 11.2738 3.92458 11.5282 3.92458 11.7934C3.92458 12.0586 4.02993 12.313 4.21747 12.5005C4.40501 12.688 4.65936 12.7934 4.92458 12.7934H8.82458C9.08979 12.7934 9.34415 12.688 9.53168 12.5005C9.71922 12.313 9.82458 12.0586 9.82458 11.7934C9.82458 11.5282 9.71922 11.2738 9.53168 11.0863C9.34415 10.8988 9.08979 10.7934 8.82458 10.7934H4.92458ZM3.92508 14.7499C3.92508 14.4847 4.03043 14.2303 4.21797 14.0428C4.40551 13.8553 4.65986 13.7499 4.92508 13.7499H8.82508C9.09029 13.7499 9.34465 13.8553 9.53218 14.0428C9.71972 14.2303 9.82508 14.4847 9.82508 14.7499C9.82508 15.0151 9.71972 15.2695 9.53218 15.457C9.34465 15.6445 9.09029 15.7499 8.82508 15.7499H4.92508C4.65986 15.7499 4.40551 15.6445 4.21797 15.457C4.03043 15.2695 3.92508 15.0151 3.92508 14.7499ZM13.3261 8.0439C13.8261 8.0189 14.4631 7.9999 15.2501 7.9999C16.0371 7.9999 16.6741 8.0189 17.1741 8.0439C18.1556 8.0934 18.9066 8.8444 18.9561 9.8259C18.9811 10.3259 19.0001 10.9629 19.0001 11.7499C19.0001 12.5369 18.9811 13.1739 18.9561 13.6739C18.9066 14.6554 18.1556 15.4064 17.1741 15.4559C16.6741 15.4809 16.0371 15.4999 15.2501 15.4999C14.4631 15.4999 13.8261 15.4809 13.3261 15.4559C12.3446 15.4064 11.5936 14.6554 11.5441 13.6739C11.5191 13.1739 11.5001 12.5369 11.5001 11.7499C11.5001 10.9629 11.5191 10.3259 11.5441 9.8259C11.5936 8.8444 12.3446 8.0934 13.3261 8.0439Z" fill="black"/>
</svg>
