<svg width="21" height="22" viewBox="0 0 21 22" fill="none" xmlns="http://www.w3.org/2000/svg">
<path fill-rule="evenodd" clip-rule="evenodd" d="M9.20831 0.620635C9.31836 0.431795 9.476 0.275109 9.6655 0.166209C9.855 0.0573086 10.0697 0 10.2883 0C10.5069 0 10.7216 0.0573086 10.9111 0.166209C11.1006 0.275109 11.2583 0.431795 11.3683 0.620635L14.1633 5.41864L19.5913 6.59464C19.8048 6.64103 20.0024 6.74258 20.1645 6.88917C20.3265 7.03575 20.4473 7.22225 20.5148 7.43006C20.5823 7.63787 20.5941 7.85974 20.5491 8.07355C20.5041 8.28737 20.4038 8.48565 20.2583 8.64863L16.5583 12.7896L17.1183 18.3146C17.1404 18.5322 17.105 18.7517 17.0157 18.9513C16.9265 19.151 16.7864 19.3237 16.6094 19.4522C16.4325 19.5807 16.225 19.6606 16.0076 19.6838C15.7901 19.7071 15.5704 19.6729 15.3703 19.5846L10.2883 17.3446L5.20632 19.5846C5.00623 19.6729 4.78651 19.7071 4.56907 19.6838C4.35163 19.6606 4.1441 19.5807 3.96719 19.4522C3.79028 19.3237 3.65018 19.151 3.56088 18.9513C3.47159 18.7517 3.43622 18.5322 3.45832 18.3146L4.01832 12.7896L0.318315 8.64964C0.172543 8.48666 0.0720706 8.2883 0.026929 8.07435C-0.0182127 7.86041 -0.00644447 7.63837 0.0610588 7.43039C0.128562 7.22242 0.249439 7.03579 0.411621 6.88913C0.573804 6.74248 0.771618 6.64093 0.985315 6.59464L6.41332 5.41864L9.20831 0.620635ZM10.2883 2.73964L7.97532 6.71163C7.88786 6.86156 7.77013 6.99162 7.62964 7.09355C7.48915 7.19547 7.32898 7.26702 7.15932 7.30363L2.66732 8.27664L5.72932 11.7036C5.96332 11.9656 6.07632 12.3136 6.04132 12.6626L5.57832 17.2356L9.78432 15.3816C9.94313 15.3117 10.1148 15.2755 10.2883 15.2755C10.4619 15.2755 10.6335 15.3117 10.7923 15.3816L14.9983 17.2356L14.5353 12.6626C14.5177 12.49 14.5363 12.3155 14.5898 12.1504C14.6434 11.9853 14.7307 11.8331 14.8463 11.7036L17.9093 8.27664L13.4173 7.30363C13.2477 7.26702 13.0875 7.19547 12.947 7.09355C12.8065 6.99162 12.6888 6.86156 12.6013 6.71163L10.2883 2.73964Z" fill="black"/>
</svg>
