<svg width="19" height="23" viewBox="0 0 19 23" fill="none" xmlns="http://www.w3.org/2000/svg">
<path fill-rule="evenodd" clip-rule="evenodd" d="M7.41864 0L8.67864 0.756C10.2768 1.70067 11.5045 3.16264 12.1586 4.9C12.3806 4.4 12.6446 3.915 12.8896 3.425L13.8706 4.406C16.0726 6.608 18.1636 9.908 18.1636 13.113C18.1636 17.411 15.5136 20.136 11.2736 20.607L9.88364 20.761L10.1876 19.396C10.4246 18.328 10.4676 17.63 10.4176 17.141C10.3576 16.526 10.0656 16.043 9.70164 15.563C9.35364 15.103 9.00864 14.642 8.73264 14.133C7.59764 15.03 7.15764 15.84 7.01664 16.507C6.83664 17.361 7.09164 18.234 7.55764 19.166L8.37964 20.81L6.55364 20.607C3.97764 20.321 1.43964 18.6 0.43964 16.089C-0.60536 13.462 0.133641 10.283 3.50964 7.357C5.74964 5.416 6.93564 2.899 7.41864 0ZM8.75064 3.3C7.98864 5.44 6.52564 7.39 4.81864 8.869C1.90764 11.392 1.64664 13.713 2.29864 15.349C2.78364 16.569 3.83064 17.572 5.07164 18.141C4.92665 17.4671 4.92257 16.7705 5.05964 16.095C5.38564 14.549 6.49764 13.1 8.63364 11.765L9.71064 11.092L10.1126 12.297C10.4646 13.353 11.1946 14.1 11.7656 15.027C12.3936 16.047 12.5136 17.217 12.3856 18.385C15.0056 17.73 16.1636 15.743 16.1636 13.113C16.1636 10.891 14.8236 8.711 13.4936 7.007C12.9456 8.235 11.7906 8.667 10.6636 9.231V7.613C10.6636 6.244 10.1066 4.575 8.75064 3.301V3.3Z" fill="black"/>
</svg>
